<?xml version="1.0" standalone="no"?>
<!DOCTYPE svg PUBLIC "-//W3C//DTD SVG 1.1//EN" "http://www.w3.org/Graphics/SVG/1.1/DTD/svg11.dtd" >
<svg xmlns="http://www.w3.org/2000/svg">
<path d="M 207.72,479.88c 145.416,0, 146.544-6.032, 164.552-19.592c 9.552-7.184, 27.576-12.168, 93.416-16.456
	c 4.784-0.312, 9.32-2.144, 12.368-5.84c 1.4-1.704, 34.296-49.68, 34.296-126.512c0-75.72-23.544-110.24-24.552-111.848
	c-2.92-4.672-8.048-7.512-13.56-7.512c-54.056,0-128.992-69-179.376-189.456c-8.712-20.832-10.504-34.528-42.512-34.528
	c-18.2,0-38.6,13.032-48.688,29.752c-20.656,34.16-10.168,107.528-0.456,146.736c-33-0.264-92.736-0.72-121.16-0.72
	c-39.536,0-65.696,23.576-66.504,58.048c-0.256,11.376, 1.232,25.912, 4.528,33.416c-8.696,8.68-19.928,21.776-20.416,38.632
	c-0.616,21.752, 13.64,38.32, 22.728,47.832c-2.080,6.328-6.256,14.72-5.856,24.752c 1.008,24.672, 20.048,40.576, 31.92,48.872
	C 47.472,402.184, 46.704,414.928, 48.864,424.768C 57.424,464.080, 115.064,479.88, 207.72,479.88z M 457.192,411.376c-57.344,4.744-88,11.168-104.168,23.344
	c-12.512,9.416-10.576,13.152-145.304,13.152c-41.088,0-121.448-1.712-127.608-29.912c-2.456-11.28, 9.44-22.376, 9.488-22.456
	c 3.248-8.024-0.376-17.424-8.296-20.888c-0.128-0.064-32.064-11.512-32.8-29.368c-0.472-11.416, 7.36-18.272, 7.544-18.552
	c 4.656-7.232, 2.952-17.16-4.112-22.080c-0.080-0.064-20.784-12.608-20.272-29.72c 0.392-13.576, 18.288-23.144, 18.832-23.464
	c 4-2.288, 6.912-6.248, 7.816-10.784c 0.904-4.512-0.112-9.264-2.912-12.92c0,0-8.136-12.936-7.848-25.056
	c 0.592-25.968, 28.512-26.784, 34.504-26.784c 40.36,0, 144.016,0.424, 144.016,0.424c 5.592,0.016, 10.432-2.624, 13.432-7.096
	s 3.232-10.032, 1.464-15.112c-15.624-45.016-24.352-115.64-9.856-139.768c 4.264-7.112, 5.248-14.216, 21.248-14.216
	c 2.216,0, 7.496,1.752, 13,14.872c 53.496,127.904, 133.352,201.904, 198.76,208.576c 5.64,12.864, 16.248,39.52, 16.248,87.896
	C 480.352,360.832, 464.712,399.016, 457.192,411.376z"  />
</svg>