<?xml version="1.0" standalone="no"?>
<!DOCTYPE svg PUBLIC "-//W3C//DTD SVG 1.1//EN" "http://www.w3.org/Graphics/SVG/1.1/DTD/svg11.dtd" >
<svg xmlns="http://www.w3.org/2000/svg">
<path d="M 450.92,5.312l-416,0 l0,320 l 128.8,0 l 32.36,31.168l-0.832,0.832L 34.92,357.312 
			c-17.672,0-32-14.328-32-32l0-320 c0-17.672, 14.328-32, 32-32l 416,0 c 17.672,0, 32,14.328, 32,32L 482.92,255.648 l-32-30.544L 450.92,5.312 z M 135.064,133.312l 32.24,0 
			c 22.432,127.248, 133.272,224, 266.944,224c 5.608,0, 10.928-0.048, 16.312-0.088l-58.624-58.616c-6.232-6.248-6.232-16.376,0-22.624
			c 3.128-3.128, 7.232-4.688, 11.328-4.688s 8.168,1.56, 11.296,4.688l 94.512,97L 414.56,470c-6.232,6.248-16.36,6.248-22.624,0
			c-6.232-6.248-6.232-16.376,0-22.624l 58.088-58.080c-5.016,0.008-9.984,0.024-15.104,0.024C 283.392,389.32, 158.136,278.344, 135.064,133.312z"  />
</svg>